<?xml version="1.0" encoding="UTF-8" standalone="no"?>
<svg
   viewBox="0 0 4533.3335 2666.6667"
   height="2666.6667"
   width="4533.3335"
   xml:space="preserve"
   id="svg2"
   version="1.1"
   sodipodi:docname="PalmeresFinal.svg"
   inkscape:version="1.3 (0e150ed, 2023-07-21)"
   xmlns:inkscape="http://www.inkscape.org/namespaces/inkscape"
   xmlns:sodipodi="http://sodipodi.sourceforge.net/DTD/sodipodi-0.dtd"
   xmlns="http://www.w3.org/2000/svg"
   xmlns:svg="http://www.w3.org/2000/svg"
   xmlns:rdf="http://www.w3.org/1999/02/22-rdf-syntax-ns#"
   xmlns:cc="http://creativecommons.org/ns#"
   xmlns:dc="http://purl.org/dc/elements/1.1/"><sodipodi:namedview
     id="namedview1"
     pagecolor="#ffffff"
     bordercolor="#000000"
     borderopacity="0.25"
     inkscape:showpageshadow="2"
     inkscape:pageopacity="0.0"
     inkscape:pagecheckerboard="0"
     inkscape:deskcolor="#d1d1d1"
     inkscape:zoom="0.19235293"
     inkscape:cx="1694.8013"
     inkscape:cy="935.77985"
     inkscape:window-width="2240"
     inkscape:window-height="1095"
     inkscape:window-x="0"
     inkscape:window-y="25"
     inkscape:window-maximized="0"
     inkscape:current-layer="g12" /><metadata
     id="metadata8"><rdf:RDF><cc:Work
         rdf:about=""><dc:format>image/svg+xml</dc:format><dc:type
           rdf:resource="http://purl.org/dc/dcmitype/StillImage" /></cc:Work></rdf:RDF></metadata><defs
     id="defs6" /><g
     transform="matrix(1.3333333,0,0,-1.3333333,0,2666.6667)"
     id="g10"><g
       transform="scale(0.1)"
       id="g12"><g
         transform="matrix(1.92574,0,0,1.92574,-13412.845,-3275.2296)"
         id="g588"><path
           id="path590"
           style="fill:#000000;fill-opacity:1;fill-rule:nonzero;stroke:none"
           d="m 14540.9,7766.96 c 57.8,-157.6 122.7,-314.02 215.4,-453.97 78.3,-118.03 188.8,-215.46 250.4,-342.95 368.3,-762.15 314.9,-2149.2 324.8,-2149.61 117.2,-5.35 234.5,-10.7 351.7,-16.05 42.8,511.38 -173.6,1752.49 -362.4,2229.7 -23.6,59.77 -47.3,122.34 -41.7,186.37 10.1,116.88 111.1,201.41 199.1,279 470.9,415.14 771.7,1017.81 820.4,1643.68 0.8,9.85 1.4,20.29 -3.2,29.05 -8.4,16.25 -30.7,19.59 -48.5,15.29 -57.4,-13.84 -93.3,-74.99 -104.9,-132.8 -76.2,-379.71 -132.9,-576.56 -372,-906.51 -192.1,-264.93 -408.1,-533.81 -718.4,-637.51 -34.2,-11.41 -70.6,-21.06 -105.8,-13.83 -32.7,6.68 -60.8,27.17 -85.5,49.61 -135.6,123.5 -191.3,309.68 -241.2,486.19 -73.2,258.87 -146.4,517.74 -219.6,776.61 -36.4,128.81 -129.9,31.92 -132.7,-57.74 -2.8,-90.17 41.9,-196.98 62.7,-284.06 56.7,-237.36 127.3,-471.39 211.4,-700.47" /></g><g
         transform="matrix(1.89749,0,0,1.89749,-13412.845,-3275.2296)"
         id="g592"><path
           id="path594"
           style="fill:#95693f;fill-opacity:1;fill-rule:nonzero;stroke:none"
           d="m 16077.5,9324.58 c 6.7,29.38 19.8,63.65 49.3,69.59 20.5,-130.44 5.2,-263.42 0.4,-395.38 -4.7,-131.94 2.5,-269.27 63.3,-386.45 31.6,-60.74 109.5,-180.76 2.1,-211.62 -104.6,-30.09 -104.8,104.7 -113.7,171.26 -33,248.65 -58.1,505.37 -1.4,752.6" /></g><g
         transform="matrix(1.75534,0,0,1.75534,-13412.845,-3275.2296)"
         id="g596"><path
           id="path598"
           style="fill:#95693f;fill-opacity:1;fill-rule:nonzero;stroke:none"
           d="m 16163.6,9522.07 c 31.3,199.41 28.7,402.38 26.3,604.23 -0.6,46.9 0.5,98.5 31.4,133.8 66.7,-30.5 78.5,-119 78.5,-192.5 0.2,-395.04 -32,-874.05 -261.6,-1255.22 -17,-28.36 -146.4,-6.86 -153.6,73.11 -6.3,69.81 49.6,85.27 89.6,130.71 114.6,130.08 163.3,339.4 189.4,505.87" /></g><g
         transform="matrix(2.00149,0,0,2.00149,-13412.845,-3275.2296)"
         id="g600"
         style="fill:#c8ab37"><path
           id="path602"
           style="fill:#c8ab37;fill-opacity:1;fill-rule:nonzero;stroke:none"
           d="m 12740.8,8648.11 c 69.7,14.13 140.9,20.12 211.9,17.83 -102,-84.93 -174,-205.37 -200.4,-335.51 69.9,32.06 139.8,64.12 209.7,96.18 -68.4,-127.8 -113.1,-268.29 -131,-412.16 111.4,76.71 222.7,153.42 334,230.13 12.1,-94.27 24.2,-188.55 36.3,-282.84 79.9,105.9 154.8,215.6 224.3,328.61 51.1,-71.94 102.2,-143.88 153.3,-215.82 36.8,108.16 63,219.91 78.2,333.14 60.5,-65.19 127.1,-124.75 198.6,-177.66 36,145.71 30.6,301.41 -15.5,444.25 90.5,-3.91 176.9,-60.35 216.9,-141.69 3.9,42.5 7.8,85.01 11.8,127.52 77.6,-76.72 131.3,-177.4 151.7,-284.64 53.2,88.78 97.3,183.02 131.4,280.77 6.1,-125.05 29.4,-249.25 69,-368.03 74.2,134.58 133.3,277.5 175.8,425.2 30.3,-138.95 52,-279.78 64.8,-421.41 60.7,87.75 141.7,161.38 234.8,213.48 -70.6,-116.31 -121.1,-244.7 -148.8,-377.88 92.6,120.34 173.4,249.81 240.8,385.91 6.8,-72.47 19.2,-144.41 37.1,-214.97 66.3,167.67 81,355.37 41.7,531.34 103.6,-87.29 194.4,-189.7 268.7,-302.97 37.7,130.4 75.4,260.8 113,391.2 26,-83.12 40.3,-169.82 42.6,-256.84 30.3,56.69 69.6,108.57 115.9,153.09 -7.8,-131.32 -25.4,-262.05 -52.6,-390.74 64.8,103.68 119.2,213.87 162.2,328.37 121,-166.35 192.6,-368.2 203.5,-573.64 70.8,149.44 115.3,311.35 130.8,476.01 62.6,-54.37 118.5,-116.53 166,-184.61 41.9,85.18 14.3,191.43 -43.6,266.73 -57.8,75.31 -140.9,126.26 -222.1,175.49 116.8,1.67 233.8,-8.83 348.4,-31.26 -99,152.23 -276.1,250.52 -457.7,253.99 117,26.7 233.9,53.41 350.9,80.11 -248.2,170.02 -581,209.07 -861.8,101.12 -127.9,92.53 -289.6,137.3 -446.8,123.74 39.9,-47 79.9,-94.01 119.9,-141.01 -43.4,20.53 -86.8,41.06 -130.1,61.59 -0.3,-43.11 15.1,-86.15 42.8,-119.23 -138.9,68.29 -292.7,106.09 -447.3,109.97 1.2,-44.39 8.6,-88.6 21.8,-131.01 -18.5,12.97 -37.1,25.95 -55.6,38.92 -1.3,-16.05 -2.6,-32.11 -3.9,-48.17 -57.4,38.44 -74.1,118.72 -57.6,185.81 16.5,67.09 59.2,124.22 100.9,179.31 -107.4,-50.26 -204.9,-121.23 -285.8,-207.86 20.4,63.43 40.7,126.85 61.1,190.27 -161.4,-79.71 -293.2,-217.77 -365.3,-382.69 -119.6,64.77 -246.2,116.5 -376.9,154.01 45.9,-52.21 91.9,-104.41 137.8,-156.61 -84.8,38.99 -178.9,57.47 -272.2,53.43 22.9,-53.76 45.8,-107.53 68.7,-161.28 -120.9,60.52 -264.6,74.18 -394.8,37.55 43.8,13.85 184.4,-119.38 209.5,-147.68 -40.6,3.49 -176.7,46.59 -199.3,12.99 -15.8,-23.6 42.6,-76.42 29.2,-105.09 -15.9,-33.9 -129.1,-42.78 -165.7,-60.15 -72.6,-34.52 -136.6,-87.21 -181,-154.61" /></g><g
         transform="matrix(1.68974,0,0,1.68974,-13412.845,-3275.2296)"
         id="g604"
         style="fill:#ff0000"><path
           id="path606"
           style="fill:#ff0000;fill-opacity:1;fill-rule:nonzero;stroke:none"
           d="m 15230.1,10084.7 c 128.5,58.2 263.7,101.5 402,128.6 -76.4,-83 -120.9,-194.7 -122.5,-307.47 79.4,96.97 158.9,193.97 238.3,290.97 40.6,-144.4 64.3,-293.54 70.5,-443.41 60.2,159.66 89.8,330.81 86.7,501.41 93.8,-64.9 187.7,-129.8 281.6,-194.7 -54.2,96.9 -135.2,178.6 -231.7,233.5 113.5,23.6 229.1,37.2 345,40.7 -113,77.2 -260.7,73.1 -397.3,66 97.9,61.4 205.4,107.6 317.3,136.3 -94,32.1 -195.5,47.9 -293.4,30.8 -133.5,-23.3 -234.4,-128.3 -352.6,-188.3 -72.9,-36.9 -141.1,-73.5 -203,-128 -40.9,-36 -97.8,-146.9 -140.9,-166.4" /></g><g
         transform="matrix(1.87458,0,0,1.87458,-13412.845,-3275.2296)"
         id="g608"
         style="fill:#6c5353"><path
           id="path610"
           style="fill:#6c5353;fill-opacity:1;fill-rule:nonzero;stroke:none"
           d="m 15274.8,9765.47 c 126.3,-35.47 244,-101.21 340.4,-190.16 -143.2,9.27 -288.5,-18.45 -418.2,-79.75 142.8,25.66 290.3,24.96 432.9,-2.06 -119,-134.3 -204.2,-298.38 -245.6,-473.02 118,123.94 236.1,247.89 354.1,371.83 40,-146.82 52.5,-301.15 36.4,-452.49 76.7,153.09 111.9,326.74 100.8,497.62 132.9,-140.18 209.3,-332.56 208.6,-525.74 38.5,97.91 70.3,200.72 69.2,305.93 -1,105.21 -38.7,214.02 -119.3,281.67 97,-48.26 181.1,-121.89 241.8,-211.53 18,81.18 -28.7,166.07 -95.4,215.66 -66.7,49.59 -150.1,70.45 -231.7,86.05 109.5,49.77 231.1,72.62 351.2,65.97 -134.3,59.41 -294.9,55.75 -426.3,-9.73 95.9,71.62 207.8,121.61 325.2,145.24 -24.2,-4.87 -73.8,19.22 -101.2,21.2 -40.9,2.96 -82.4,-0.76 -122.3,-10.16 -80.5,-18.94 -134.6,-88.57 -207.6,-109.19 -67.5,-19.06 -144.3,39.59 -210.5,54.24 -92.3,20.45 -188.4,19.65 -282.5,18.42" /></g><g
         transform="matrix(1.98466,0,0,1.98466,-13412.845,-3275.2296)"
         id="g612"
         style="fill:#aa4400"><path
           id="path614"
           style="fill:#aa4400;fill-opacity:1;fill-rule:nonzero;stroke:none"
           d="m 15564.3,9657.05 c 129.7,-54.69 238.9,-156.39 302.7,-281.83 -121.8,30.79 -251.7,28.55 -372.3,-6.41 111.8,7.62 225.3,-9.89 329.8,-50.86 -161,-29.98 -306.7,-133.53 -387.9,-275.64 135.9,63.65 271.9,127.31 407.9,190.95 -69.6,-94.82 -139.1,-189.64 -208.6,-284.47 97.3,52.3 182.3,127.15 246.5,216.98 -6.5,-158.84 -62.6,-315.29 -158.5,-442.05 164.4,99.16 274,283.67 282.4,475.49 73.1,-114.63 109.6,-252.14 103.1,-387.93 72.6,117.7 63.2,280.31 -22.3,388.91 71.4,-14.22 137.1,-55.29 181.2,-113.24 31.7,62.43 -21.5,134.55 -77.6,176.39 -53.3,39.69 -123.7,55.05 -174.8,93.19 -43.6,32.53 -66.3,90.86 -104.1,131.16 -90.1,96.02 -215.9,159.1 -347.5,169.36" /></g><g
         transform="matrix(1.76281,0,0,1.76281,-13412.845,-3275.2296)"
         id="g616"
         style="fill:#6c6753"><path
           id="path618"
           style="fill:#6c6753;fill-opacity:1;fill-rule:nonzero;stroke:none"
           d="m 15108,10006.4 c 139.9,164.8 329.7,286.6 537.9,344.9 -139.7,-107.4 -233.2,-273.1 -252.8,-448.21 82,123.61 177.7,238.11 284.8,340.71 15.5,-110.6 31,-221.2 46.5,-331.79 17.3,109.79 25.6,220.89 24.8,332.09 111.5,-97.8 195.1,-226.9 238.7,-368.66 -4.6,154.26 -58.5,306.56 -151.9,429.46 132.3,-32 253.5,-108 339.9,-213.1 -52.9,121.4 -154.6,220.7 -277.2,270.8 120.4,56.7 261.8,27.5 391.5,-2.7 -103.3,96.6 -259.5,132.5 -394.6,90.7 121.4,69 266.4,95.6 404.4,74 -73.1,91.8 -207.3,101.5 -324.6,97.4 -112.3,-3.9 -191.8,-26.2 -275.9,-100.3 -67.6,-59.7 -131.6,-71.4 -214.3,-107.5 -174.3,-76.2 -318.3,-225.6 -377.2,-407.8" /></g><g
         transform="matrix(1.90669,0,0,1.90669,-13412.845,-3275.2296)"
         id="g620"
         style="fill:#800000"><path
           id="path622"
           style="fill:#800000;fill-opacity:1;fill-rule:nonzero;stroke:none"
           d="m 15336.4,10004 c 114.9,38.6 252.9,-11.15 316.8,-114.02 -121.5,36.72 -258.6,18.49 -366.4,-48.73 98.4,10.78 198.6,4.9 295,-17.32 -108.2,-11.26 -209.8,-74.29 -268.1,-166.22 95.4,49.66 200.2,80.96 307.2,91.7 -91.4,-114.94 -144.4,-259.81 -148.9,-406.56 93.5,133.45 187.1,266.89 280.7,400.34 21.3,-165.67 -3.4,-337 -70.7,-489.9 72.7,93.78 133,197.03 179.1,306.3 18.8,44.58 34.8,97.44 10.8,139.43 65.4,-90.72 103.5,-200.82 108.3,-312.56 39.2,105.06 34.3,225.82 -13.2,327.37 96.6,-48.34 176.1,-130.3 221.4,-228.43 13.1,80.39 -11.8,166.15 -65.9,226.99 -54.2,60.85 -136.5,95.55 -217.8,91.87 132.4,34.28 269.7,-21.32 395.3,-75.8 -14.9,95.71 -124.6,143.2 -220.4,157.44 -71.9,10.7 -161,-11.19 -228.6,5.66 -54.3,13.52 -91.4,68.74 -141,96.6 -112.5,63.14 -256.8,73.64 -373.6,15.84" /></g><g
         transform="matrix(2.03931,0,0,2.03931,-13412.845,-3275.2296)"
         id="g624"
         style="fill:#2b1100"><path
           id="path626"
           style="fill:#2b1100;fill-opacity:1;fill-rule:nonzero;stroke:none"
           d="m 15565.3,8564.05 c -50.8,-79.06 -85.9,-168.21 -102.5,-260.7 66.1,117.24 169.5,213.06 291.4,270.04 -109.3,-120.57 -162.5,-290.13 -141.5,-451.54 42,128.98 98.4,253.27 167.9,369.79 -17.4,-148.76 -11.8,-300.17 16.5,-447.25 11.4,139.35 22.7,278.7 34.2,418.05 99.6,-144.01 186.2,-297 258.5,-456.48 -31.4,194.23 -64.5,393.6 -164.3,563.11 124.4,-62.92 231.2,-160.14 305.5,-278.08 -36.5,149.99 -139.8,282.38 -276.5,354.22 114.7,10.94 232.2,-8.97 336.9,-57.09 -66.2,87.58 -179.3,137.34 -288.5,126.93 87.5,54.21 198.4,68.94 297.1,39.44 -47.6,68.7 -141.5,92.43 -224.1,79.42 -103.9,-16.36 -188.7,-82.3 -288.6,-104.36 -96.6,-21.33 -168.9,-82.86 -222,-165.5" /></g><g
         transform="matrix(1.82917,0,0,1.82917,-13412.845,-3275.2296)"
         id="g628"><path
           id="path630"
           style="fill:#7f5737;fill-opacity:1;fill-rule:nonzero;stroke:none"
           d="m 16045.5,6469.08 c 2.1,-12.87 4.1,-25.74 6.1,-38.61 78.5,67.57 157,135.13 235.5,202.69 12.9,11.1 -0.9,32.24 -16.2,27.84 -82.1,-23.54 -164.2,-47.08 -246.3,-70.63 2,-10.98 4,-21.96 5.9,-32.95 58.9,16.86 117.6,33.72 176.4,50.58 -53.8,-46.31 -107.6,-92.62 -161.4,-138.92" /></g><g
         transform="matrix(1.84867,0,0,1.84867,-13412.845,-3275.2296)"
         id="g632"><path
           id="path634"
           style="fill:#7f5737;fill-opacity:1;fill-rule:nonzero;stroke:none"
           d="m 16300,5749.66 c -1.6,13.31 -3.2,26.68 -4.9,40.09 -67.7,-34.26 -135.5,-68.53 -203.3,-102.79 -39,-19.69 -77.6,-40.02 -116.8,-59.08 -5.3,-2.58 -12.4,-5.69 -20.1,-8.23 0.6,-11.24 1.1,-22.35 1.6,-33.38 16.5,4.04 31.7,11.42 46.7,19.06 5.7,2.84 11.4,5.69 17,8.54 -21.1,-13.13 -42.1,-26.25 -63.1,-39.37 0.5,-12.76 1.1,-25.37 1.6,-37.82 54.3,33.88 108.6,67.75 162.8,101.62 59.5,37.12 119,74.24 178.5,111.36" /></g><g
         transform="matrix(1.84224,0,0,1.84224,-13412.845,-3275.2296)"
         id="g636"><path
           id="path638"
           style="fill:#7f5737;fill-opacity:1;fill-rule:nonzero;stroke:none"
           d="m 16082.4,6196.49 c -23.2,-10.44 -56.9,-23.13 -81.5,-11.86 87,67.86 173.9,135.73 260.9,203.6 -2.2,12.13 -4.5,24.25 -6.8,36.33 -97.2,-75.82 -194.3,-151.63 -291.5,-227.45 1.2,-9.76 2.3,-19.51 3.5,-29.24 25.8,-25.46 65.2,-23.2 98.2,-13.15 48,14.65 93.5,41.36 138.8,62.79 18.6,8.84 37.3,17.67 56,26.5 -40.9,-25.69 -81.9,-51.37 -122.7,-77.06 -16.8,-10.48 -5.3,-33.13 12.7,-30.24 50.6,8.13 100.7,19.01 150,32.49 -1.8,10.91 -3.6,21.84 -5.4,32.75 -21.6,-5.96 -43.5,-11.39 -65.4,-16.33 20.5,12.91 41.1,25.8 61.6,38.71 -3.7,21.83 -7.4,43.64 -11.2,65.42 -20.9,-9.88 -41.8,-19.76 -62.7,-29.64 -44.8,-21.2 -89.2,-43.37 -134.5,-63.62" /></g><g
         transform="matrix(1.82063,0,0,1.82063,-13412.845,-3275.2296)"
         id="g640"><path
           id="path642"
           style="fill:#7f5737;fill-opacity:1;fill-rule:nonzero;stroke:none"
           d="m 16001.6,7034.03 c 98.7,40.04 198.2,78.11 298.4,114.17 -3,10.86 -6,21.58 -9.1,32.19 -100.4,-36.13 -200.2,-74.27 -299.1,-114.4 3.3,-10.6 6.5,-21.27 9.8,-31.96" /></g><g
         transform="matrix(1.82394,0,0,1.82394,-13412.845,-3275.2296)"
         id="g644"><path
           id="path646"
           style="fill:#7f5737;fill-opacity:1;fill-rule:nonzero;stroke:none"
           d="m 16099,6907.65 c -26.2,-20.75 -52.7,-41.17 -78.8,-62.03 2.9,-11.9 5.7,-23.84 8.5,-35.81 28.4,23.06 57.5,45.33 86.1,68.05 61.7,49.05 123.5,98.09 185.2,147.14 -3,11.83 -6.1,23.53 -9.2,35.13 -13.9,-11.07 -27.8,-22.14 -41.7,-33.21 -50.1,-39.75 -100.1,-79.51 -150.1,-119.27" /></g><g
         transform="matrix(1.84595,0,0,1.84595,-13412.845,-3275.2296)"
         id="g648"><path
           id="path650"
           style="fill:#7f5737;fill-opacity:1;fill-rule:nonzero;stroke:none"
           d="m 15967.6,5806.04 c 110.8,45.29 221.6,90.57 332.4,135.86 -1.6,11.14 -3.2,22.29 -4.8,33.47 -61.2,-25.04 -122.5,-50.07 -183.8,-75.11 32.4,18.96 64.8,37.92 97.2,56.88 28.7,10.29 56.7,22.32 84,35.97 -2.3,15.77 -4.7,31.56 -7.1,47.39 -30.2,-17.74 -60.5,-35.47 -90.8,-53.2 -18.6,-6.59 -37.6,-12.49 -56.7,-17.57 47.4,35.24 94.8,70.47 142.2,105.71 -1.9,12.2 -3.8,24.41 -5.8,36.62 -71.6,-53.22 -143.2,-106.46 -214.8,-159.7 -15.2,-11.34 -6.1,-33.14 12.7,-30.17 5.4,0.84 10.7,1.86 16,2.82 -41.3,-24.24 -82.7,-48.48 -124.1,-72.72 1.2,-15.54 2.3,-30.95 3.4,-46.25" /></g><g
         transform="matrix(1.84675,0,0,1.84675,-13412.845,-3275.2296)"
         id="g652"><path
           id="path654"
           style="fill:#7f5737;fill-opacity:1;fill-rule:nonzero;stroke:none"
           d="m 16294.9,5925.12 c -108.9,-78.31 -217.9,-156.63 -326.9,-234.95 0.7,-13.08 1.5,-26.05 2.1,-38.9 110,79.01 219.9,158.02 329.9,237.03 -1.7,12.25 -3.4,24.52 -5.1,36.82" /></g><g
         transform="matrix(1.82883,0,0,1.82883,-13412.845,-3275.2296)"
         id="g656"><path
           id="path658"
           style="fill:#7f5737;fill-opacity:1;fill-rule:nonzero;stroke:none"
           d="m 16291.7,6862.3 c -90.7,-71.18 -182.8,-140.49 -276.3,-207.91 2.4,-11.95 4.7,-23.91 7,-35.89 93.9,67.51 186.4,137 277.6,208.26 -2.7,11.93 -5.5,23.77 -8.3,35.54" /></g><g
         transform="matrix(1.83707,0,0,1.83707,-13412.845,-3275.2296)"
         id="g660"><path
           id="path662"
           style="fill:#7f5737;fill-opacity:1;fill-rule:nonzero;stroke:none"
           d="m 16293.6,6479.61 c -99,-45.86 -200.8,-85.62 -304.7,-119.03 1.6,-11.11 3.2,-22.19 4.7,-33.28 104.4,33.36 206.8,73.06 306.4,118.82 -2.1,11.18 -4.2,22.35 -6.4,33.49" /></g><g
         transform="matrix(1.82782,0,0,1.82782,-13412.845,-3275.2296)"
         id="g664"><path
           id="path666"
           style="fill:#7f5737;fill-opacity:1;fill-rule:nonzero;stroke:none"
           d="m 16292,6903.06 c -95.6,-51.57 -191.1,-103.11 -286.7,-154.62 2.5,-11.27 5,-22.58 7.4,-33.91 95.8,51.63 191.5,103.29 287.3,154.97 -2.7,11.27 -5.4,22.44 -8,33.56" /></g><g
         transform="matrix(1.74587,0,0,1.74587,-13412.845,-3275.2296)"
         id="g668"><path
           id="path670"
           style="fill:#7f5737;fill-opacity:1;fill-rule:nonzero;stroke:none"
           d="m 16154.1,8286.26 c 48.6,47.86 97.3,95.72 145.9,143.57 -10.4,15.12 -20.3,30.68 -29.7,46.61 -50.8,-35.81 -102.7,-70.17 -155.5,-103 4.7,-10.83 9.4,-21.63 14.2,-32.39 30,18.65 59.9,37.78 89.4,57.42 -26.7,-26.19 -53.3,-52.38 -79.9,-78.57 5.1,-11.26 10.3,-22.47 15.6,-33.64" /></g><g
         transform="matrix(1.8145,0,0,1.8145,-13412.845,-3275.2296)"
         id="g672"><path
           id="path674"
           style="fill:#7f5737;fill-opacity:1;fill-rule:nonzero;stroke:none"
           d="m 16015.7,7180.5 c 3.9,-10.86 7.6,-21.79 11.3,-32.78 27.6,20.72 55.5,40.54 81.8,60.56 63.8,48.49 127.5,96.99 191.2,145.48 -3.7,11.33 -7.5,22.47 -11.3,33.29 -11.7,-8.88 -23.4,-17.77 -35,-26.65 -79,-60.08 -159.8,-118.49 -238,-179.9" /></g><g
         transform="matrix(1.85342,0,0,1.85342,-13412.845,-3275.2296)"
         id="g676"><path
           id="path678"
           style="fill:#7f5737;fill-opacity:1;fill-rule:nonzero;stroke:none"
           d="m 16300,5150.86 c -0.1,11.12 -0.1,22.39 -0.3,33.83 -124.1,-30.27 -248.3,-59.99 -372.7,-89.29 0.1,-12.57 0.1,-23.85 0.2,-33.78 73.6,17.32 147.1,34.75 220.6,52.39 50.8,12.2 101.5,24.55 152.2,36.85" /></g><g
         transform="matrix(1.73547,0,0,1.73547,-13412.845,-3275.2296)"
         id="g680"><path
           id="path682"
           style="fill:#7f5737;fill-opacity:1;fill-rule:nonzero;stroke:none"
           d="m 16286.4,8705.03 c -44.7,-44.61 -89.4,-89.23 -134,-133.85 4.5,-11.99 9.1,-23.97 13.7,-35.92 44.6,44.58 89.3,89.17 133.9,133.76 -4.7,11.93 -9.2,23.94 -13.6,36.01" /></g><g
         transform="matrix(1.81229,0,0,1.81229,-13412.845,-3275.2296)"
         id="g684"><path
           id="path686"
           style="fill:#7f5737;fill-opacity:1;fill-rule:nonzero;stroke:none"
           d="m 16288.3,7451.93 c -98.2,-51.06 -196.4,-102.12 -294.6,-153.18 4.3,-10.37 8.4,-20.8 12.6,-31.33 97.9,50.91 195.8,101.82 293.7,152.74 -3.9,10.85 -7.8,21.5 -11.7,31.77" /></g><g
         transform="matrix(1.79596,0,0,1.79596,-13412.845,-3275.2296)"
         id="g688"><path
           id="path690"
           style="fill:#7f5737;fill-opacity:1;fill-rule:nonzero;stroke:none"
           d="m 16289.4,7760.91 c 10.6,11.19 0.1,35.3 -16.6,28.36 -102.8,-42.85 -205.5,-85.71 -308.3,-128.56 7.4,-9.06 14.7,-18.17 22,-27.31 74.5,31.05 149,62.12 223.5,93.17 -54.9,-57.78 -109.8,-115.57 -164.7,-173.35 6.5,-9.73 12.7,-19.57 18.7,-29.58 25.8,27.14 51.5,54.26 77.3,81.4 49.3,51.96 98.7,103.91 148.1,155.87" /></g><g
         transform="matrix(1.85253,0,0,1.85253,-13412.845,-3275.2296)"
         id="g692"><path
           id="path694"
           style="fill:#7f5737;fill-opacity:1;fill-rule:nonzero;stroke:none"
           d="m 16300,5374.86 c -0.7,11.22 -1.5,22.56 -2.3,33.95 -122.6,-27.96 -244.4,-59.65 -365.7,-92.47 0.2,-11.66 0.4,-23.05 0.7,-34.17 76.3,20.35 152.8,40.22 229.5,59.38 45.8,11.44 91.8,22.62 137.8,33.31" /></g><g
         transform="matrix(1.75924,0,0,1.75924,-13412.845,-3275.2296)"
         id="g696"><path
           id="path698"
           style="fill:#7f5737;fill-opacity:1;fill-rule:nonzero;stroke:none"
           d="m 16201.4,8331.51 c -55,-38.95 -111.4,-75.8 -169,-110.73 5,-10.46 10,-20.87 15.2,-31.23 39.5,23.94 78.3,48.81 116.6,74.62 -33.7,-35.06 -67.4,-70.11 -101.2,-105.17 10.4,-20.06 21.2,-39.92 32.3,-59.56 68.2,45.06 136.5,90.13 204.7,135.2 -10,6.89 -19.5,14.56 -28.6,22.58 -60.1,-39.73 -120.3,-79.46 -180.5,-119.18 48.8,50.7 97.6,101.4 146.3,152.11 -12.6,13.27 -24.5,27.08 -35.8,41.36" /></g><g
         transform="matrix(1.78872,0,0,1.78872,-13412.845,-3275.2296)"
         id="g700"><path
           id="path702"
           style="fill:#7f5737;fill-opacity:1;fill-rule:nonzero;stroke:none"
           d="m 16089.7,8072.52 c -19.4,3.97 -37.2,12.55 -53.8,23.42 -55.5,-51.7 -110.9,-103.39 -166.4,-155.1 -16.3,-15.19 7.5,-37.8 24.1,-24.09 68.1,56.25 140.4,107.19 216,152.75 -61.1,-55.29 -122.2,-110.59 -183.3,-165.88 -14.5,-13.18 4.1,-36.22 20.7,-26.76 84.2,48.2 168.5,96.41 252.7,144.61 -75,-88.04 -149.9,-176.08 -224.9,-264.11 7.3,-8.88 14.6,-17.73 22,-26.57 97,113.94 194,227.87 291.1,341.81 12.1,14.23 -3.1,36.82 -20.7,26.75 -67,-38.32 -134,-76.66 -200.9,-114.99 34,30.85 68.1,61.71 102.2,92.56 -26,-6.52 -52.7,-9.73 -78.8,-4.4" /></g><g
         transform="matrix(1.85488,0,0,1.85488,-13412.845,-3275.2296)"
         id="g704"><path
           id="path706"
           style="fill:#7f5737;fill-opacity:1;fill-rule:nonzero;stroke:none"
           d="m 16300,8017.67 c -30.9,63.79 -61.5,127.79 -91,192.26 -3.4,7.45 -6.7,14.92 -10.1,22.38 -7.7,-9.31 -15.5,-18.56 -23.4,-27.74 32.7,-71.65 66.5,-142.71 101,-213.51 7.9,8.82 15.7,17.68 23.5,26.61" /></g><g
         transform="matrix(1.85099,0,0,1.85099,-13412.845,-3275.2296)"
         id="g708"><path
           id="path710"
           style="fill:#7f5737;fill-opacity:1;fill-rule:nonzero;stroke:none"
           d="m 16277.6,7971.55 c 7.5,8.06 15,16.16 22.4,24.32 -48.5,54.56 -97,109.13 -145.6,163.69 -7.4,-8.11 -15,-16.16 -22.5,-24.13 48.6,-54.62 97.2,-109.25 145.7,-163.88" /></g><g
         transform="matrix(1.86318,0,0,1.86318,-13412.845,-3275.2296)"
         id="g712"><path
           id="path714"
           style="fill:#7f5737;fill-opacity:1;fill-rule:nonzero;stroke:none"
           d="m 16211.7,8302.6 c -8.4,-10.98 -16.8,-21.94 -25.4,-32.83 10.9,-39.88 24.1,-79.11 39.4,-117.48 -22.9,25.65 -46.9,50.29 -72.3,73.6 l -1.1,1.01 c -6.9,-8.53 -13.8,-17.02 -20.8,-25.47 51,-47.11 97.6,-99.09 138.2,-155.43 1.8,-2.55 3.5,-5.19 5.3,-7.75 8.4,10.26 16.7,20.61 25,31 -33.5,64 -60.4,131.3 -79.9,201 -3,10.74 -5.8,21.52 -8.4,32.35" /></g><g
         transform="matrix(1.8381,0,0,1.8381,-13412.845,-3275.2296)"
         id="g716"><path
           id="path718"
           style="fill:#7f5737;fill-opacity:1;fill-rule:nonzero;stroke:none"
           d="m 16300,7934.01 c -16,25.26 -31.8,50.66 -47.1,76.33 -23.7,39.83 -46.7,80.14 -68.9,120.9 -8.2,-7.86 -16.5,-15.61 -24.9,-23.27 36.7,-67.02 75.5,-132.85 116.5,-197.29 8.2,7.72 16.3,15.5 24.4,23.33" /></g><g
         transform="matrix(1.90083,0,0,1.90083,-13412.845,-3275.2296)"
         id="g720"><path
           id="path722"
           style="fill:#7f5737;fill-opacity:1;fill-rule:nonzero;stroke:none"
           d="m 16298.8,8441.01 c -42.7,41.87 -85.4,83.73 -128.1,125.6 -12.8,-25.91 -26.7,-52.04 -41.8,-78.63 16.8,-20.62 33.2,-41.56 49.2,-62.73 -8,4.79 -15.9,9.58 -23.9,14.37 -14.8,8.86 -28.3,-8.2 -22,-21.93 19,-40.79 33.5,-83.91 43.1,-127.99 -34.1,31.94 -73,58.8 -115,79.15 -1.1,0.53 -2.3,0.89 -3.6,1.14 -5.6,-8.61 -11.3,-17.29 -17.2,-26.07 26.1,-65.27 51.3,-130.89 75.5,-196.85 -1,0.33 -2.2,0.76 -3.5,1.27 -7.2,2.84 -13.7,7.81 -19.4,13.03 -16.5,15.33 -31,33.24 -46.3,49.79 -18.8,20.33 -37.5,40.65 -56.3,60.98 -4,-5.68 -8,-11.3 -12.2,-17.05 -2.3,-3.16 -4.6,-6.32 -6.9,-9.47 21.8,-23.69 43.7,-47.37 65.6,-71.05 15.8,-17.22 30.9,-36.81 50.9,-49.41 11.5,-7.19 24.8,-11.39 37.3,-9.84 7.8,12.17 15.5,24.43 23.1,36.73 -20.6,56.11 -42,111.98 -63.9,167.58 39.5,-24.31 74.9,-54.63 105.2,-90.22 0.9,-1.05 1.9,-1.85 3.1,-2.53 7,12.34 13.9,24.74 20.8,37.2 -7,42.04 -18,83.07 -32.9,122.87 16.9,-10.13 33.8,-20.27 50.6,-30.39 13.1,-7.86 31.4,8.48 21.9,21.93 -29.4,41.61 -60.3,82.23 -92.3,121.96 41.4,-23.37 80.5,-50.77 116.3,-82.12 3.9,-3.39 8.2,-4.56 12.3,-4.17 3.9,8.45 7.8,16.92 11.6,25.41 -0.4,0.48 -0.7,0.97 -1.2,1.44" /></g><g
         transform="matrix(1.83501,0,0,1.83501,-13412.845,-3275.2296)"
         id="g724"><path
           id="path726"
           style="fill:#7f5737;fill-opacity:1;fill-rule:nonzero;stroke:none"
           d="m 15928.4,7938.07 c 42.4,-41.86 84.8,-83.71 127.2,-125.57 13.3,-13.14 35.8,3.7 26.1,20.13 -17.9,30.24 -33.4,61.73 -46.4,94.19 1.5,-1.77 3,-3.54 4.5,-5.31 4.7,-5.55 14.2,-6.09 20.1,-2.6 7,4.03 8.8,11.36 7.7,18.75 -3.5,24.49 -8.5,48.71 -14.7,72.6 55.6,-53.82 111.2,-107.64 166.8,-161.47 8.1,7.26 16.4,14.45 24.4,21.58 l 0.7,0.63 c -45.3,55.21 -85.7,114.33 -121.1,176.32 50.6,-49.57 101.2,-99.14 151.9,-148.71 8.2,7.47 16.3,15 24.4,22.58 -49.4,48.34 -98.8,96.69 -148.2,145.03 -4.5,4.41 -9,8.82 -13.5,13.23 -16,-13.43 -32.3,-26.45 -48.9,-39.03 8.5,-15.14 17.4,-30.08 26.5,-44.86 -12.6,12.13 -25.1,24.27 -37.6,36.4 -18.1,-13.43 -36.6,-26.37 -55.3,-38.69 l 0.2,-1.04 -0.6,0.77 c -12.4,-8.11 -25,-15.87 -37.6,-23.46 6.6,-21.36 14.1,-42.43 22.7,-63.08 -16.3,16.01 -32.5,32.04 -48.7,48.05 -10.1,-5.65 -20.3,-11.13 -30.6,-16.44" /></g><g
         transform="matrix(1.91499,0,0,1.91499,-13412.845,-3275.2296)"
         id="g728"><path
           id="path730"
           style="fill:#7f5737;fill-opacity:1;fill-rule:nonzero;stroke:none"
           d="m 16194.1,8780.72 c 19.8,-1.72 39.3,-6.18 58.3,-13.48 11.4,-4.4 22.8,8.74 19.6,19.58 -5.5,18.1 -19.3,31.86 -37.6,37.01 -10.8,3.08 -18.3,-4.88 -19.5,-13.57 -15.8,2.6 -31.9,3.65 -48,2.95 -5.6,-20.73 -11.5,-41.01 -17.6,-60.97 21.7,-7.36 42.9,-17.49 63.3,-29.2 24.6,-20.03 50.2,-38.91 76.5,-56.59 3.7,11.95 7.4,23.93 10.9,35.95 -21.6,16.15 -44,31.64 -67.4,45.28 -13.1,10.67 -25.9,21.7 -38.5,33.04" /></g><g
         transform="matrix(1.90825,0,0,1.90825,-13412.845,-3275.2296)"
         id="g732"><path
           id="path734"
           style="fill:#7f5737;fill-opacity:1;fill-rule:nonzero;stroke:none"
           d="m 16154,8635.04 c -4,-9.87 -8.2,-19.72 -12.5,-29.57 27.9,-16.6 56.1,-32.55 85.2,-46.99 20.3,-10.11 41,-19.38 62.1,-27.56 3.8,9.8 7.5,19.61 11.2,29.45 -50.6,19.82 -99,46.45 -146,74.67" /></g><g
         transform="matrix(1.87171,0,0,1.87171,-13412.845,-3275.2296)"
         id="g736"><path
           id="path738"
           style="fill:#7f5737;fill-opacity:1;fill-rule:nonzero;stroke:none"
           d="m 16144,8273.03 c 45.5,-31.25 85.1,-70.63 116.1,-116.49 11.7,-17.26 39.9,-0.99 28.1,16.44 -38.7,57.15 -65.2,121.74 -77.8,189.24 -8.5,-11.65 -17.1,-23.3 -25.7,-34.94 4.8,-19.65 10.7,-39.02 17.7,-58 -12.4,10.6 -25.3,20.54 -38.6,29.83 -6.6,-8.71 -13.1,-17.4 -19.8,-26.08" /></g><g
         transform="matrix(1.91206,0,0,1.91206,-13412.845,-3275.2296)"
         id="g740"><path
           id="path742"
           style="fill:#7f5737;fill-opacity:1;fill-rule:nonzero;stroke:none"
           d="m 16288.7,8601.91 c 3.8,11.17 7.6,22.37 11.3,33.59 -40.6,40.06 -85.1,76.15 -132.9,107.51 -3.4,-10.58 -6.8,-21.07 -10.4,-31.5 47.6,-31.89 91.8,-68.64 132,-109.6" /></g><g
         transform="matrix(1.71694,0,0,1.71694,-13412.845,-3275.2296)"
         id="g744"><path
           id="path746"
           style="fill:#7f5737;fill-opacity:1;fill-rule:nonzero;stroke:none"
           d="m 16273.6,9452.14 c -14.9,-4.98 -29.8,-9.96 -44.7,-14.95 -43.1,-14.44 -86.3,-28.87 -129.4,-43.31 3.8,-15.11 7.9,-30.18 11.8,-45.26 63,3.41 125.8,6.83 188.7,10.25 -3.3,11.66 -6.6,23.31 -9.9,34.96 -18.2,-0.99 -36.3,-1.97 -54.5,-2.97 -13.3,-0.72 -26.6,-1.44 -39.9,-2.16 29.2,9.77 58.4,19.53 87.6,29.29 -3.2,11.39 -6.5,22.77 -9.7,34.15" /></g><g
         transform="matrix(1.74514,0,0,1.74514,-13412.845,-3275.2296)"
         id="g748"><path
           id="path750"
           style="fill:#7f5737;fill-opacity:1;fill-rule:nonzero;stroke:none"
           d="m 16160.8,9214.38 c 42.9,2.34 85.9,4.67 128.8,7.01 3.6,11.79 7,23.62 10.4,35.48 -41.3,-2.24 -82.6,-4.49 -123.9,-6.73 -4.9,-12.09 -10,-24.02 -15.3,-35.76" /></g><g
         transform="matrix(1.73971,0,0,1.73971,-13412.845,-3275.2296)"
         id="g752"><path
           id="path754"
           style="fill:#7f5737;fill-opacity:1;fill-rule:nonzero;stroke:none"
           d="m 16300,9131.63 c -56.6,-7.19 -113.2,-14.38 -169.7,-21.57 -2,-2.4 -4,-4.81 -6,-7.15 -0.5,2.06 -1.1,4.12 -1.7,6.17 -39.6,-5.03 -79.3,-10.07 -118.9,-15.11 38,10.54 76.1,21.09 114.3,31.64 -3.3,11.24 -6.4,22.48 -9.6,33.72 -53,-14.69 -106.1,-29.39 -159.1,-44.07 -5.9,-1.61 -11.7,-3.21 -17.5,-4.82 5.6,-19.53 11.1,-39.04 16.8,-58.51 95.8,12.18 191.6,24.36 287.4,36.54 -89.2,-35.57 -177.9,-72.61 -264.7,-113.64 3.4,-11.22 7,-22.41 10.4,-33.62 85.7,40.72 173.3,77.42 261.3,112.57 10,4.01 20.2,7.95 30.2,11.93 9.4,21.78 18.4,43.76 26.8,65.92" /></g><g
         transform="matrix(1.74306,0,0,1.74306,-13412.845,-3275.2296)"
         id="g756"><path
           id="path758"
           style="fill:#7f5737;fill-opacity:1;fill-rule:nonzero;stroke:none"
           d="m 16286.7,9163.39 c 4.6,13.27 9,26.6 13.3,39.98 -51.1,-14.17 -102.3,-28.33 -153.5,-42.49 -9,-15.35 -18.6,-30.13 -28.8,-44.27 56.4,15.59 112.7,31.18 169,46.78" /></g><g
         transform="matrix(1.75434,0,0,1.75434,-13412.845,-3275.2296)"
         id="g760"><path
           id="path762"
           style="fill:#7f5737;fill-opacity:1;fill-rule:nonzero;stroke:none"
           d="m 16297,9689.26 c 1.1,13.12 2.1,26.21 3,39.27 -35.9,-16.17 -71.7,-32.33 -107.6,-48.5 -1,-13.17 -2.2,-26.34 -3.4,-39.49 35.9,16.24 72,32.48 108,48.72" /></g><g
         transform="matrix(1.70772,0,0,1.70772,-13412.845,-3275.2296)"
         id="g764"><path
           id="path766"
           style="fill:#7f5737;fill-opacity:1;fill-rule:nonzero;stroke:none"
           d="m 16281.7,9785.21 c -49.7,-22.44 -99.5,-44.89 -149.2,-67.33 -5.9,-2.67 -11.9,-5.33 -17.8,-7.99 4.1,-15 8.5,-29.98 12.8,-44.82 57.1,19.97 114.5,38.58 172.5,55.54 -6.1,21.53 -12.2,43.06 -18.3,64.6" /></g><g
         transform="matrix(1.73225,0,0,1.73225,-13412.845,-3275.2296)"
         id="g768"><path
           id="path770"
           style="fill:#7f5737;fill-opacity:1;fill-rule:nonzero;stroke:none"
           d="m 16289.3,8809.36 c -55.6,-16.84 -111.5,-32.58 -167.6,-47.22 3.8,-11.12 7.5,-22.28 11.4,-33.38 55.9,14.62 111.6,30.27 166.9,47.05 -3.6,11.15 -7.2,22.34 -10.7,33.55" /></g><g
         transform="matrix(1.72988,0,0,1.72988,-13412.845,-3275.2296)"
         id="g772"><path
           id="path774"
           style="fill:#7f5737;fill-opacity:1;fill-rule:nonzero;stroke:none"
           d="m 16300,8859.19 c -3.5,11.75 -6.9,23.5 -10.3,35.23 -40.1,-0.01 -80.2,-0.43 -120.3,-1.24 37.9,7.81 75.9,15.6 113.9,23.4 -2.4,8.51 -4.8,17.01 -7.2,25.48 6.7,11.26 13.3,22.62 19.8,34.04 -70.7,-5.92 -141.2,-13.38 -211.5,-22.33 3.5,-11.29 7.1,-22.57 10.7,-33.85 23.3,2.93 46.6,5.66 69.9,8.25 -22.7,-4.66 -45.4,-9.31 -68,-13.96 6.2,-19.22 12.4,-38.4 18.7,-57.56 61.5,1.79 122.9,2.63 184.3,2.54" /></g><g
         transform="matrix(1.74977,0,0,1.74977,-13412.845,-3275.2296)"
         id="g776"><path
           id="path778"
           style="fill:#7f5737;fill-opacity:1;fill-rule:nonzero;stroke:none"
           d="m 16185.8,9392.96 c -3.1,-12.55 -6.3,-25.12 -9.6,-37.68 29.8,6.53 59.8,12.88 89.8,19.11 -31.1,-10.39 -62.1,-20.78 -93.2,-31.17 -3.8,-13.62 -7.8,-27.21 -12.1,-40.72 41.5,13.86 82.9,27.72 124.4,41.59 5.4,24.16 10.3,48.41 14.9,72.68 -38.1,-7.7 -76.2,-15.59 -114.2,-23.81" /></g><g
         transform="matrix(1.71018,0,0,1.71018,-13412.845,-3275.2296)"
         id="g780"><path
           id="path782"
           style="fill:#7f5737;fill-opacity:1;fill-rule:nonzero;stroke:none"
           d="m 16116.3,9611.1 c 3.7,-12.33 7.3,-24.49 10.7,-36.44 57.5,17.11 115.1,33.49 173,49.17 -4.7,16.68 -9.5,33.36 -14.2,50.04 -38.3,-15.25 -76.9,-29.9 -115.7,-43.91 -17.9,-6.45 -35.8,-12.67 -53.8,-18.86" /></g><g
         transform="matrix(1.71325,0,0,1.71325,-13412.845,-3275.2296)"
         id="g784"><path
           id="path786"
           style="fill:#7f5737;fill-opacity:1;fill-rule:nonzero;stroke:none"
           d="m 16281.3,9569.66 c -51.3,-19.84 -102.6,-39.67 -153.9,-59.5 -5.1,-2 -10.3,-4 -15.5,-5.99 3.7,-15.35 7.6,-30.67 11.4,-46 58.7,15.68 117.6,30.75 176.7,45.23 -6.2,22.09 -12.5,44.17 -18.7,66.26" /></g><g
         transform="matrix(1.74613,0,0,1.74613,-13412.845,-3275.2296)"
         id="g788"><path
           id="path790"
           style="fill:#7f5737;fill-opacity:1;fill-rule:nonzero;stroke:none"
           d="m 16296.7,9611.69 c -3.7,8.38 -11.8,11.7 -20.6,10.1 -6.3,-1.15 -12.6,-2.45 -18.9,-3.63 -2,-15.3 -4.1,-30.59 -6.5,-45.85 -0.1,-0.64 -0.2,-1.29 -0.4,-1.93 13.2,6.47 26.3,12.9 39.3,19.51 7.6,3.9 10.4,14.3 7.1,21.8" /></g></g></g></svg>
