<?xml version="1.0" encoding="UTF-8" standalone="no"?>
<svg
   viewBox="0 0 1053.2267 550.81335"
   height="550.81335"
   width="1053.2267"
   xml:space="preserve"
   id="svg2"
   version="1.1"
   sodipodi:docname="instagram.svg"
   inkscape:version="1.3 (0e150ed, 2023-07-21)"
   xmlns:inkscape="http://www.inkscape.org/namespaces/inkscape"
   xmlns:sodipodi="http://sodipodi.sourceforge.net/DTD/sodipodi-0.dtd"
   xmlns:xlink="http://www.w3.org/1999/xlink"
   xmlns="http://www.w3.org/2000/svg"
   xmlns:svg="http://www.w3.org/2000/svg"
   xmlns:rdf="http://www.w3.org/1999/02/22-rdf-syntax-ns#"
   xmlns:cc="http://creativecommons.org/ns#"
   xmlns:dc="http://purl.org/dc/elements/1.1/"><sodipodi:namedview
     id="namedview1"
     pagecolor="#ffffff"
     bordercolor="#000000"
     borderopacity="0.25"
     inkscape:showpageshadow="2"
     inkscape:pageopacity="0.0"
     inkscape:pagecheckerboard="0"
     inkscape:deskcolor="#d1d1d1"
     inkscape:zoom="1.017006"
     inkscape:cx="438.54217"
     inkscape:cy="215.33797"
     inkscape:window-width="2240"
     inkscape:window-height="1095"
     inkscape:window-x="0"
     inkscape:window-y="25"
     inkscape:window-maximized="0"
     inkscape:current-layer="g12" /><metadata
     id="metadata8"><rdf:RDF><cc:Work
         rdf:about=""><dc:format>image/svg+xml</dc:format><dc:type
           rdf:resource="http://purl.org/dc/dcmitype/StillImage" /></cc:Work></rdf:RDF></metadata><defs
     id="defs6"><clipPath
       id="clipPath278"
       clipPathUnits="userSpaceOnUse"><path
         id="path276"
         d="m 3412.04,2919.11 c 0,-97.7 -79.2,-176.91 -176.9,-176.91 -97.71,0 -176.91,79.21 -176.91,176.91 0,97.71 79.2,176.91 176.91,176.91 97.7,0 176.9,-79.2 176.9,-176.91 z" /></clipPath><linearGradient
       id="linearGradient294"
       spreadMethod="pad"
       gradientTransform="matrix(353.746,-298.772,-298.772,-353.746,3069.42,3059.07)"
       gradientUnits="userSpaceOnUse"
       y2="0"
       x2="1"
       y1="0"
       x1="0"
       xlink:href="#linearGradient378"><stop
         id="stop280"
         offset="0"
         style="stop-color:#6cf996;stop-opacity:1;" /><stop
         id="stop282"
         offset="0.0011048"
         style="stop-opacity:1;stop-color:#f9d76c" /><stop
         id="stop284"
         offset="0.20935699"
         style="stop-color:#2e1b00;stop-opacity:1;" /><stop
         id="stop286"
         offset="0.37645999"
         style="stop-color:#ffe9f0;stop-opacity:1;" /><stop
         id="stop288"
         offset="0.52381498"
         style="stop-color:#683153;stop-opacity:1;" /><stop
         id="stop290"
         offset="0.739443"
         style="stop-color:#4f1f81;stop-opacity:1;" /><stop
         id="stop292"
         offset="1"
         style="stop-color:#000751;stop-opacity:1;" /></linearGradient><clipPath
       id="clipPath336"
       clipPathUnits="userSpaceOnUse"><path
         id="path334"
         d="m 2687.78,3033.46 c -11.45,0 -20.74,-9.29 -20.74,-20.74 0,-11.46 9.29,-20.75 20.74,-20.75 11.46,0 20.74,9.29 20.74,20.75 0,11.45 -9.28,20.74 -20.74,20.74 z" /></clipPath><linearGradient
       id="linearGradient352"
       spreadMethod="pad"
       gradientTransform="matrix(320.881,-307.137,-307.137,-320.881,2525.7,3167.86)"
       gradientUnits="userSpaceOnUse"
       y2="0"
       x2="1"
       y1="0"
       x1="0"><stop
         id="stop338"
         offset="0"
         style="stop-opacity:1;stop-color:#f9d76c" /><stop
         id="stop340"
         offset="0.0011048"
         style="stop-opacity:1;stop-color:#f9d76c" /><stop
         id="stop342"
         offset="0.209357"
         style="stop-opacity:1;stop-color:#f9a837" /><stop
         id="stop344"
         offset="0.37646"
         style="stop-opacity:1;stop-color:#f03d74" /><stop
         id="stop346"
         offset="0.523815"
         style="stop-opacity:1;stop-color:#e62299" /><stop
         id="stop348"
         offset="0.739443"
         style="stop-opacity:1;stop-color:#6f3ea2" /><stop
         id="stop350"
         offset="1"
         style="stop-opacity:1;stop-color:#4850ab" /></linearGradient><clipPath
       id="clipPath362"
       clipPathUnits="userSpaceOnUse"><path
         id="path360"
         d="m 2595.57,2863.91 c -30.78,0 -55.82,25.04 -55.82,55.81 0,30.78 25.04,55.82 55.82,55.82 30.77,0 55.81,-25.04 55.81,-55.82 0,-30.77 -25.04,-55.81 -55.81,-55.81 z m 0,142.95 c -48.05,0 -87.14,-39.09 -87.14,-87.14 0,-48.04 39.09,-87.13 87.14,-87.13 48.04,0 87.13,39.09 87.13,87.13 0,48.05 -39.09,87.14 -87.13,87.14 z" /></clipPath><linearGradient
       id="linearGradient378"
       spreadMethod="pad"
       gradientTransform="matrix(320.881,-307.137,-307.137,-320.881,2435.16,3073.26)"
       gradientUnits="userSpaceOnUse"
       y2="0"
       x2="1"
       y1="0"
       x1="0"><stop
         id="stop364"
         offset="0"
         style="stop-opacity:1;stop-color:#f9d76c" /><stop
         id="stop366"
         offset="0.0011048"
         style="stop-opacity:1;stop-color:#f9d76c" /><stop
         id="stop368"
         offset="0.209357"
         style="stop-opacity:1;stop-color:#f9a837" /><stop
         id="stop370"
         offset="0.37646"
         style="stop-opacity:1;stop-color:#f03d74" /><stop
         id="stop372"
         offset="0.523815"
         style="stop-opacity:1;stop-color:#e62299" /><stop
         id="stop374"
         offset="0.739443"
         style="stop-opacity:1;stop-color:#6f3ea2" /><stop
         id="stop376"
         offset="1"
         style="stop-opacity:1;stop-color:#4850ab" /></linearGradient><clipPath
       id="clipPath388"
       clipPathUnits="userSpaceOnUse"><path
         id="path386"
         d="m 2523.48,3063.34 c -40.25,0 -72.99,-32.74 -72.99,-72.99 v -141.26 c 0,-40.25 32.74,-72.99 72.99,-72.99 h 141.26 c 40.25,0 72.99,32.74 72.99,72.99 v 141.26 c 0,40.25 -32.74,72.99 -72.99,72.99 z m 141.26,-320.53 h -141.26 c -58.6,0 -106.27,47.68 -106.27,106.28 v 141.26 c 0,58.61 47.67,106.28 106.27,106.28 h 141.26 c 58.6,0 106.28,-47.67 106.28,-106.28 v -141.26 c 0,-58.6 -47.68,-106.28 -106.28,-106.28 z" /></clipPath><linearGradient
       id="linearGradient404"
       spreadMethod="pad"
       gradientTransform="matrix(320.879,-307.135,-307.135,-320.879,2434.46,3072.54)"
       gradientUnits="userSpaceOnUse"
       y2="0"
       x2="1"
       y1="0"
       x1="0"><stop
         id="stop390"
         offset="0"
         style="stop-opacity:1;stop-color:#f9d76c" /><stop
         id="stop392"
         offset="0.0011048"
         style="stop-opacity:1;stop-color:#f9d76c" /><stop
         id="stop394"
         offset="0.209357"
         style="stop-opacity:1;stop-color:#f9a837" /><stop
         id="stop396"
         offset="0.37646"
         style="stop-opacity:1;stop-color:#f03d74" /><stop
         id="stop398"
         offset="0.523815"
         style="stop-opacity:1;stop-color:#e62299" /><stop
         id="stop400"
         offset="0.739443"
         style="stop-opacity:1;stop-color:#6f3ea2" /><stop
         id="stop402"
         offset="1"
         style="stop-opacity:1;stop-color:#4850ab" /></linearGradient><linearGradient
       inkscape:collect="always"
       xlink:href="#linearGradient378"
       id="linearGradient1"
       gradientUnits="userSpaceOnUse"
       gradientTransform="matrix(320.881,-307.137,-307.137,-320.881,2435.16,3073.26)"
       x1="0"
       y1="0"
       x2="1"
       y2="0"
       spreadMethod="pad" /></defs><g
     transform="matrix(1.3333333,0,0,-1.3333333,3.6234864,552.02116)"
     id="g10"><g
       transform="scale(0.1)"
       id="g12"><g
         id="g272"
         transform="matrix(6.0852583,0,0,6.0852583,-13604.814,-15666.043)"><g
           clip-path="url(#clipPath278)"
           id="g274"><path
             id="path296"
             style="fill:url(#linearGradient294);fill-rule:nonzero;stroke:none"
             d="m 3412.04,2919.11 c 0,-97.7 -79.2,-176.91 -176.9,-176.91 -97.71,0 -176.91,79.21 -176.91,176.91 0,97.71 79.2,176.91 176.91,176.91 97.7,0 176.9,-79.2 176.9,-176.91 m 111.8055,-251.2576 c -97.71,0 -176.91,79.21 -176.91,176.91 0,97.71 79.2,176.91 176.91,176.91"
             sodipodi:nodetypes="csssccsc" /></g></g><path
         id="path298"
         style="fill:#ffffff;fill-opacity:1;fill-rule:nonzero;stroke:none;stroke-width:6.08525"
         d="m 6415.9902,2504.7818 c -40.893,0 -73.9968,-33.1647 -73.9968,-73.9967 0,-40.893 33.1038,-73.9967 73.9968,-73.9967 40.8929,0 73.9967,33.1037 73.9967,73.9967 0,40.832 -33.1038,73.9967 -73.9967,73.9967" /><path
         id="path300"
         style="fill:#ffffff;fill-opacity:1;fill-rule:nonzero;stroke:none;stroke-width:6.08525"
         d="m 6087.0211,1899.9071 c -109.8389,0 -199.1096,89.3316 -199.1096,199.1097 0,109.778 89.2707,199.1096 199.1096,199.1096 109.7781,0 199.0489,-89.3316 199.0489,-199.1096 0,-109.7781 -89.2708,-199.1097 -199.0489,-199.1097 z m 0,509.9446 c -171.4217,0 -310.8959,-139.4132 -310.8959,-310.8349 0,-171.4218 139.4742,-310.835 310.8959,-310.835 171.3609,0 310.835,139.4132 310.835,310.835 0,171.4217 -139.4741,310.8349 -310.835,310.8349" /><path
         id="path302"
         style="fill:#ffffff;fill-opacity:1;fill-rule:nonzero;stroke:none;stroke-width:6.08525"
         d="m 5829.7972,2611.3955 c -143.5512,0 -260.3273,-116.7761 -260.3273,-260.3882 v -503.9811 c 0,-143.5512 116.7761,-260.3881 260.3273,-260.3881 h 503.9812 c 143.612,0 260.3882,116.8369 260.3882,260.3881 v 503.9811 c 0,143.6121 -116.7762,260.3882 -260.3882,260.3882 z m 503.9812,-1143.4808 h -503.9812 c -209.0286,0 -379.1116,170.0829 -379.1116,379.1115 v 503.9811 c 0,209.0287 170.083,379.1116 379.1116,379.1116 h 503.9812 c 209.0286,0 379.1724,-170.0829 379.1724,-379.1116 v -503.9811 c 0,-209.0286 -170.1438,-379.1115 -379.1724,-379.1115" /><g
         id="g330"
         transform="matrix(6.0852583,0,0,6.0852583,-13604.814,-15666.043)"><g
           clip-path="url(#clipPath336)"
           id="g332"><path
             id="path354"
             style="fill:url(#linearGradient352);fill-opacity:1;fill-rule:nonzero;stroke:none"
             d="m 2687.78,3033.46 c -11.45,0 -20.74,-9.29 -20.74,-20.74 0,-11.46 9.29,-20.75 20.74,-20.75 11.46,0 20.74,9.29 20.74,20.75 0,11.45 -9.28,20.74 -20.74,20.74" /></g></g><g
         id="g356"
         transform="matrix(6.0852583,0,0,6.0852583,-13604.814,-15666.043)"><g
           clip-path="url(#clipPath362)"
           id="g358"><path
             id="path380"
             style="fill:url(#linearGradient1);fill-opacity:1;fill-rule:nonzero;stroke:none"
             d="m 2595.57,2863.91 c -30.78,0 -55.82,25.04 -55.82,55.81 0,30.78 25.04,55.82 55.82,55.82 30.77,0 55.81,-25.04 55.81,-55.82 0,-30.77 -25.04,-55.81 -55.81,-55.81 z m 0,142.95 c -48.05,0 -87.14,-39.09 -87.14,-87.14 0,-48.04 39.09,-87.13 87.14,-87.13 48.04,0 87.13,39.09 87.13,87.13 0,48.05 -39.09,87.14 -87.13,87.14" /></g></g><g
         id="g382"
         transform="matrix(6.0852583,0,0,6.0852583,-13604.814,-15666.043)"><g
           clip-path="url(#clipPath388)"
           id="g384"><path
             id="path406"
             style="fill:url(#linearGradient404);fill-opacity:1;fill-rule:nonzero;stroke:none"
             d="m 2523.48,3063.34 c -40.25,0 -72.99,-32.74 -72.99,-72.99 v -141.26 c 0,-40.25 32.74,-72.99 72.99,-72.99 h 141.26 c 40.25,0 72.99,32.74 72.99,72.99 v 141.26 c 0,40.25 -32.74,72.99 -72.99,72.99 z m 141.26,-320.53 h -141.26 c -58.6,0 -106.27,47.68 -106.27,106.28 v 141.26 c 0,58.61 47.67,106.28 106.27,106.28 h 141.26 c 58.6,0 106.28,-47.67 106.28,-106.28 v -141.26 c 0,-58.6 -47.68,-106.28 -106.28,-106.28" /></g></g></g></g></svg>
