<?xml version="1.0" encoding="UTF-8" standalone="no"?>
<!-- Uploaded to: SVG Repo, www.svgrepo.com, Generator: SVG Repo Mixer Tools -->

<svg
   width="334.01276"
   height="282.1965"
   viewBox="0 -6.9 62.385233 52.707252"
   version="1.1"
   id="svg6"
   sodipodi:docname="logocoffe.svg"
   xml:space="preserve"
   inkscape:version="1.3 (0e150ed, 2023-07-21)"
   xmlns:inkscape="http://www.inkscape.org/namespaces/inkscape"
   xmlns:sodipodi="http://sodipodi.sourceforge.net/DTD/sodipodi-0.dtd"
   xmlns="http://www.w3.org/2000/svg"
   xmlns:svg="http://www.w3.org/2000/svg"><sodipodi:namedview
     id="namedview6"
     pagecolor="#ffffff"
     bordercolor="#000000"
     borderopacity="0.25"
     inkscape:showpageshadow="2"
     inkscape:pageopacity="0.0"
     inkscape:pagecheckerboard="0"
     inkscape:deskcolor="#d1d1d1"
     inkscape:zoom="1.9827809"
     inkscape:cx="122.0508"
     inkscape:cy="118.52041"
     inkscape:window-width="2240"
     inkscape:window-height="1095"
     inkscape:window-x="0"
     inkscape:window-y="25"
     inkscape:window-maximized="0"
     inkscape:current-layer="svg6" /><defs
     id="defs1"><style
       id="style1">.cls-1{fill:#ffffff;}</style></defs><g
     style="fill:#552200"
     id="g44"
     transform="matrix(0.14652585,0,0,0.13862818,6.8427617e-5,-10.057688)"><g
       id="g4"
       style="fill:#552200">&#10;	<path
   d="m 424.938,360.253 c -1.585,-3.657 -5.19,-6.023 -9.176,-6.023 h -90.591 c 9.831,-10.514 18.209,-22.385 24.735,-35.159 11.113,-21.758 16.749,-45.262 16.749,-69.86 0,-5.523 -4.478,-10 -10,-10 H 69.103 c -5.522,0 -10,4.477 -10,10 0,4.156 0.175,8.277 0.496,12.367 h -24.96 c -6.708,0 -13.002,2.611 -17.711,7.338 -4.731,4.732 -7.338,11.022 -7.338,17.711 0,26.286 21.38,47.67 47.66,47.67 h 27.536 c 4.705,7.056 10.002,13.729 15.802,19.933 H 10 c -3.985,0 -7.591,2.367 -9.176,6.023 -1.584,3.657 -0.847,7.906 1.879,10.814 19.007,20.284 45.851,31.917 73.648,31.917 H 349.41 c 27.797,0 54.641,-11.633 73.648,-31.917 2.726,-2.907 3.464,-7.157 1.88,-10.814 z M 29.589,286.627 c 0,-1.347 0.525,-2.615 1.494,-3.583 0.941,-0.946 2.204,-1.466 3.555,-1.466 h 27.859 c 2.405,11.249 6.087,22.179 11.028,32.72 H 57.249 c -15.252,-10e-4 -27.66,-12.414 -27.66,-27.671 z m 49.877,-27.416 h 266.825 c -2.732,37.482 -20.782,71.547 -50.553,95.019 H 130.018 C 100.248,330.758 82.197,296.693 79.466,259.211 Z M 349.41,382.985 H 76.352 c -12.784,0 -25.318,-3.069 -36.558,-8.755 h 346.173 c -11.239,5.686 -23.772,8.755 -36.557,8.755 z"
   id="path1"
   style="fill:#552200" />&#10;	<path
   d="m 145.989,131.572 51.064,24.204 c 15.341,7.271 25.243,22.328 25.843,39.293 0.191,5.399 4.628,9.647 9.987,9.646 0.12,0 0.24,-0.002 0.36,-0.006 5.52,-0.195 9.835,-4.828 9.641,-10.347 -0.865,-24.464 -15.145,-46.174 -37.265,-56.659 l -51.064,-24.204 c -17.468,-8.28 -24.942,-29.227 -16.663,-46.694 4.011,-8.462 11.077,-14.855 19.896,-18.002 8.82,-3.147 18.336,-2.672 26.798,1.339 4.993,2.367 10.954,0.238 13.319,-4.753 2.365,-4.991 0.237,-10.954 -4.753,-13.319 -13.288,-6.299 -28.236,-7.045 -42.087,-2.103 -13.851,4.943 -24.947,14.983 -31.246,28.272 -13.001,27.433 -1.262,60.33 26.17,73.333 z"
   id="path2"
   style="fill:#552200" />&#10;	<path
   d="m 231.852,52.583 c 13.909,-13.424 36.146,-13.027 49.57,0.881 13.408,13.893 13.03,36.094 -0.832,49.523 l -36.009,33.749 c -4.029,3.777 -4.234,10.105 -0.457,14.135 1.968,2.101 4.63,3.162 7.298,3.162 2.451,0 4.907,-0.896 6.837,-2.704 l 36.065,-33.802 c 0.035,-0.034 0.07,-0.067 0.105,-0.101 21.845,-21.082 22.465,-56.005 1.383,-77.85 -21.082,-21.845 -56.006,-22.465 -77.85,-1.383 -3.974,3.835 -4.087,10.166 -0.251,14.14 3.835,3.973 10.168,4.085 14.141,0.25 z"
   id="path3"
   style="fill:#552200" />&#10;	<path
   d="m 201.273,195.224 c 4.628,-3.014 5.937,-9.209 2.923,-13.837 -3.014,-4.628 -9.209,-5.938 -13.837,-2.923 -11.672,7.601 -17.405,21.826 -14.268,35.396 l 1.063,4.599 c 1.069,4.623 5.184,7.75 9.734,7.75 0.746,0 1.504,-0.084 2.262,-0.259 5.381,-1.245 8.734,-6.615 7.49,-11.996 l -1.063,-4.599 c -1.253,-5.418 1.036,-11.096 5.696,-14.131 z"
   id="path4"
   style="fill:#552200" />&#10;</g></g><g
     style="fill:#552200"
     id="g45"
     transform="matrix(0.02941369,0,0,0.02930846,23.406243,25.679045)"><g
       id="g7"
       style="fill:#552200">&#10;	<path
   d="m 446.727,30.098 c -6.316,-6.316 -14.715,-9.795 -23.647,-9.795 -5.909,0 -11.583,1.522 -16.576,4.38 -4.993,-2.858 -10.667,-4.38 -16.576,-4.38 -8.933,0 -17.331,3.479 -23.647,9.795 -6.316,6.316 -9.794,14.714 -9.794,23.647 0,8.933 3.479,17.331 9.795,23.646 l 33.151,33.152 c 1.875,1.875 4.419,2.929 7.071,2.929 2.652,0 5.196,-1.054 7.071,-2.929 l 33.152,-33.152 c 6.316,-6.316 9.794,-14.714 9.794,-23.647 0,-8.933 -3.478,-17.33 -9.794,-23.646 z M 432.584,63.249 406.504,89.33 380.423,63.249 c -2.539,-2.539 -3.937,-5.914 -3.937,-9.504 0,-3.59 1.398,-6.966 3.938,-9.505 2.539,-2.539 5.914,-3.937 9.504,-3.937 3.59,0 6.966,1.398 9.504,3.937 1.875,1.875 4.419,2.929 7.071,2.929 2.652,0 5.196,-1.054 7.071,-2.929 2.539,-2.539 5.914,-3.938 9.505,-3.938 3.59,0 6.966,1.398 9.504,3.938 2.539,2.539 3.937,5.914 3.937,9.504 0,3.59 -1.397,6.967 -3.936,9.505 z"
   id="path1-8"
   style="fill:#552200" />&#10;	<path
   d="m 187.878,296.69 c -2.64,0 -5.21,1.06 -7.07,2.92 -1.87,1.86 -2.93,4.44 -2.93,7.08 0,2.63 1.06,5.2 2.93,7.06 1.86,1.87 4.44,2.94 7.07,2.94 2.63,0 5.21,-1.07 7.07,-2.94 1.86,-1.86 2.93,-4.43 2.93,-7.06 0,-2.64 -1.07,-5.21 -2.93,-7.08 -1.86,-1.86 -4.44,-2.92 -7.07,-2.92 z"
   id="path2-7"
   style="fill:#552200" />&#10;	<path
   d="m 319.348,306.69 c 0,-2.64 -1.07,-5.21 -2.94,-7.08 -1.86,-1.86 -4.43,-2.92 -7.06,-2.92 -2.64,0 -5.22,1.06 -7.08,2.92 -1.86,1.86 -2.92,4.44 -2.92,7.08 0,2.63 1.06,5.2 2.92,7.06 1.87,1.87 4.44,2.94 7.08,2.94 2.63,0 5.2,-1.07 7.06,-2.94 1.87,-1.86 2.94,-4.43 2.94,-7.06 z"
   id="path3-8"
   style="fill:#552200" />&#10;	<path
   d="m 414.312,289.822 c 5.584,-17.486 8.376,-35.876 8.2,-54.651 -0.44,-46.076 -18.733,-85.346 -52.903,-113.565 -31.806,-26.267 -75.376,-40.514 -122.635,-40.049 -11.555,0.102 -22.909,1.082 -33.924,2.883 0.002,-0.215 0.016,-0.428 0.016,-0.643 0,-17.778 -6.923,-34.492 -19.494,-47.063 -12.571,-12.571 -29.285,-19.495 -47.063,-19.495 -14.624,0 -28.528,4.685 -39.998,13.344 -26.056,-19.605 -63.342,-17.556 -87.049,6.15 -25.95,25.951 -25.95,68.175 0,94.126 l 61.398,61.398 c -4.083,14.062 -6.149,29.033 -6.149,44.598 0,18.179 2.791,35.994 8.207,52.958 -13.018,9.104 -21.053,24.134 -21.053,40.396 0,27.183 22.115,49.297 49.298,49.297 5.215,0 10.395,-0.834 15.32,-2.44 8.899,12.216 19.607,23.138 31.748,32.213 26.258,19.628 57.513,30.002 90.384,30.002 32.863,0 64.11,-10.371 90.362,-29.992 12.144,-9.077 22.854,-20.001 31.754,-32.22 4.92,1.604 10.1,2.437 15.322,2.437 27.183,0 49.298,-22.115 49.298,-49.297 10e-4,-16.245 -8.029,-31.273 -21.039,-40.387 z M 33.605,50.876 c 9.076,-9.077 20.998,-13.615 32.92,-13.615 11.922,0 23.844,4.538 32.92,13.615 1.875,1.875 4.419,2.929 7.071,2.929 2.652,0 5.196,-1.054 7.071,-2.929 8.793,-8.793 20.484,-13.636 32.92,-13.636 12.436,0 24.127,4.843 32.92,13.637 18.153,18.152 18.153,47.688 0,65.841 L 106.515,189.63 33.603,116.718 C 15.452,98.565 15.452,69.028 33.605,50.876 Z m 65.841,159.966 c 1.952,1.953 4.512,2.929 7.071,2.929 2.559,0 5.119,-0.976 7.071,-2.929 l 79.983,-79.983 c 7.29,-7.29 12.666,-15.979 15.909,-25.456 12.091,-2.437 24.734,-3.733 37.675,-3.848 42.594,-0.386 81.54,12.2 109.718,35.471 29.476,24.342 45.257,58.346 45.639,98.333 0.213,22.827 -4.514,45.01 -13.813,65.351 -7.674,-16.94 -23.487,-29.49 -42.805,-32.522 -8.095,-6.104 -41.651,-33.812 -41.651,-73.526 0,-5.523 -4.477,-10 -10,-10 -5.523,0 -10,4.477 -10,10 0,28.654 13.243,51.617 26.403,67.369 -11.401,-2.851 -22.593,-6.535 -33.49,-11.044 -21.038,-8.708 -40.697,-20.357 -58.436,-34.625 l -39.403,-33.759 c -4.195,-3.594 -10.507,-3.107 -14.1,1.087 -3.593,4.194 -3.106,10.507 1.087,14.1 l 13.946,11.949 c -8.444,3.469 -18.995,8.858 -29.549,17.024 -16.754,12.961 -36.032,35.055 -43.562,70.81 -8.184,-19.028 -12.43,-39.595 -12.43,-60.717 0,-9.672 0.905,-19.056 2.691,-28.056 z m 11.718,148.665 c -16.155,0 -29.298,-13.143 -29.298,-29.297 0,-7.941 3.222,-15.388 8.661,-20.792 4.022,8.739 8.792,17.172 14.283,25.227 2.738,8.478 6.251,16.703 10.46,24.564 -1.357,0.191 -2.728,0.298 -4.106,0.298 z m 215.841,33.763 c -22.768,17.017 -49.875,26.012 -78.389,26.012 -28.522,0 -55.636,-8.998 -78.41,-26.022 -21.63,-16.168 -38.014,-39.069 -46.297,-64.602 0.353,-37.018 13.257,-65.807 38.388,-85.574 14.251,-11.209 28.75,-16.374 35.476,-18.334 l 8.053,6.899 c 0.077,0.066 0.155,0.131 0.234,0.194 19.254,15.507 40.602,28.165 63.448,37.622 22.852,9.458 46.9,15.593 71.475,18.233 18.665,2.009 32.74,17.644 32.74,36.368 0,1.372 -0.093,2.733 -0.243,4.071 -8.225,25.748 -24.695,48.854 -46.475,65.133 z m 59.049,-33.763 c -1.38,0 -2.753,-0.107 -4.11,-0.298 4.199,-7.844 7.704,-16.05 10.438,-24.508 5.507,-8.071 10.291,-16.517 14.321,-25.268 5.432,5.408 8.649,12.849 8.649,20.776 0,16.155 -13.143,29.298 -29.298,29.298 z"
   id="path4-7"
   style="fill:#552200" />&#10;	<path
   d="m 272.922,360.696 c -13.406,13.407 -35.221,13.408 -48.627,0 -3.905,-3.905 -10.237,-3.905 -14.143,0 -3.905,3.905 -3.905,10.237 0,14.143 10.279,10.279 23.937,15.939 38.457,15.939 14.52,0 28.177,-5.661 38.456,-15.939 3.905,-3.905 3.905,-10.237 0,-14.143 -3.906,-3.905 -10.238,-3.905 -14.143,0 z"
   id="path5"
   style="fill:#552200" />&#10;	<path
   d="m 175.522,326.163 h -11.986 c -5.523,0 -10,4.477 -10,10 0,5.523 4.477,10 10,10 h 11.986 c 5.523,0 10,-4.477 10,-10 0,-5.523 -4.477,-10 -10,-10 z"
   id="path6"
   style="fill:#552200" />&#10;	<path
   d="m 333.681,326.163 h -11.986 c -5.523,0 -10,4.477 -10,10 0,5.523 4.477,10 10,10 h 11.986 c 5.523,0 10,-4.477 10,-10 0,-5.523 -4.477,-10 -10,-10 z"
   id="path7"
   style="fill:#552200" />&#10;</g></g><path
     style="fill:#552200;fill-opacity:1;stroke-width:0.504342"
     d="m 185.40508,219.31572 c -0.52214,-0.71625 -2.11926,-1.81968 -3.54917,-2.45205 -4.26153,-1.88465 -7.58489,-6.18581 -8.18985,-10.59948 -0.3586,-2.61628 -1.69401,-3.80139 -3.03212,-2.69086 -1.14848,0.95316 -0.63858,5.34654 0.98335,8.47275 1.11669,2.15237 1.19525,2.55151 0.50216,2.55151 -1.87513,0 -9.23181,-4.17922 -13.25167,-7.52807 -4.86404,-4.05212 -6.1598,-4.83627 -7.2808,-4.4061 -1.25321,0.4809 -0.96172,2.71937 0.47686,3.66196 l 1.26553,0.82921 -1.89596,0.99583 c -3.07257,1.61381 -6.49086,5.31047 -8.00886,8.66103 l -1.3962,3.08173 -0.61969,-2.01737 c -0.34082,-1.10955 -0.63712,-3.77626 -0.65844,-5.92602 -0.0372,-3.75029 0.008,-3.90865 1.11782,-3.90865 0.82287,0 3.26782,-2.14637 8.47388,-7.43905 4.02453,-4.09147 7.64721,-7.9666 8.05042,-8.61138 0.68847,-1.10097 1.03997,-1.17177 5.77378,-1.16287 8.17902,0.0154 13.83424,2.07339 18.56301,6.75537 4.35113,4.30807 6.4091,10.89032 5.39319,17.24966 -0.47521,2.97472 -1.28024,5.8409 -1.62932,5.80097 -0.0762,-0.009 -0.56578,-0.60187 -1.08792,-1.31812 z"
     id="path45"
     transform="matrix(0.186775,0,0,0.186775,0,-6.9)" /><path
     style="fill:#552200;fill-opacity:1;stroke-width:0.504342"
     d=""
     id="path46"
     transform="matrix(0.186775,0,0,0.186775,0,-6.9)" /><path
     style="fill:#552200;fill-opacity:1;stroke-width:0.504342"
     d="m 114.61176,175.38501 c 28.77902,-0.0719 75.87197,-0.0719 104.65099,0 28.77903,0.0719 5.23255,0.1308 -52.3255,0.1308 -57.55804,0 -81.104519,-0.0589 -52.32549,-0.1308 z"
     id="path47"
     transform="matrix(0.186775,0,0,0.186775,0,-6.9)" /><path
     style="fill:#552200;fill-opacity:1;stroke-width:0.504342"
     d="m 185.48955,188.49788 c -3.76574,-3.81593 -4.39732,-5.31758 -3.20568,-7.62195 1.1383,-2.20124 2.53151,-2.78815 6.84444,-2.88331 5.62787,-0.12419 7.56513,1.18167 7.56513,5.09946 0,1.59388 -0.46122,2.32514 -3.36097,5.32875 -1.84853,1.91475 -3.61351,3.48136 -3.92217,3.48136 -0.30867,0 -2.07301,-1.53194 -3.92075,-3.40431 z m 8.68218,-5.76323 c 0,-1.90117 -1.58076,-2.73555 -3.59888,-1.89962 -1.13335,0.46945 -1.79324,0.47901 -2.75694,0.0399 -1.73808,-0.79192 -3.22668,0.0493 -3.22668,1.82343 0,0.93372 0.73538,2.09848 2.37747,3.76564 l 2.37747,2.41376 2.41378,-2.37748 c 1.72164,-1.69575 2.41378,-2.77553 2.41378,-3.76564 z"
     id="path48"
     transform="matrix(0.186775,0,0,0.186775,0,-6.9)" /><path
     style="fill:#552200;fill-opacity:1;stroke-width:0.504342"
     d="m 185.48955,188.49788 c -3.76574,-3.81593 -4.39732,-5.31758 -3.20568,-7.62195 1.1383,-2.20124 2.53151,-2.78815 6.84444,-2.88331 5.62787,-0.12419 7.56513,1.18167 7.56513,5.09946 0,1.59388 -0.46122,2.32514 -3.36097,5.32875 -1.84853,1.91475 -3.61351,3.48136 -3.92217,3.48136 -0.30867,0 -2.07301,-1.53194 -3.92075,-3.40431 z m 8.68218,-5.76323 c 0,-1.85867 -1.39793,-2.59579 -3.51994,-1.85606 -1.17864,0.41088 -1.9326,0.40792 -2.85247,-0.0112 -1.72196,-0.78458 -3.21009,0.0642 -3.21009,1.83098 0,0.93372 0.73538,2.09848 2.37747,3.76564 l 2.37747,2.41376 2.41378,-2.37748 c 1.72164,-1.69575 2.41378,-2.77553 2.41378,-3.76564 z"
     id="path49"
     transform="matrix(0.186775,0,0,0.186775,0,-6.9)" /><path
     style="fill:#552200;fill-opacity:1;stroke-width:0.504342"
     d="m 185.48955,188.49788 c -3.76574,-3.81593 -4.39732,-5.31758 -3.20568,-7.62195 1.1383,-2.20124 2.53151,-2.78815 6.84444,-2.88331 5.62787,-0.12419 7.56513,1.18167 7.56513,5.09946 0,1.59388 -0.46122,2.32514 -3.36097,5.32875 -1.84853,1.91475 -3.61351,3.48136 -3.92217,3.48136 -0.30867,0 -2.07301,-1.53194 -3.92075,-3.40431 z m 8.68218,-5.90478 c 0,-1.63073 -1.64577,-2.36785 -3.69318,-1.65412 -0.94136,0.32816 -1.80262,0.32783 -2.52432,-9.9e-4 -0.63171,-0.28781 -1.57585,-0.32138 -2.23023,-0.0793 -1.89477,0.70096 -1.45228,2.67779 1.24484,5.56122 l 2.37961,2.544 2.41164,-2.52811 c 1.61588,-1.69392 2.41164,-2.96187 2.41164,-3.84271 z"
     id="path50"
     transform="matrix(0.186775,0,0,0.186775,0,-6.9)" /><path
     style="fill:#552200;fill-opacity:1;stroke-width:0.504342"
     d="m 185.48955,188.49788 c -3.76574,-3.81593 -4.39732,-5.31758 -3.20568,-7.62195 1.1383,-2.20124 2.53151,-2.78815 6.84444,-2.88331 5.62787,-0.12419 7.56513,1.18167 7.56513,5.09946 0,1.59388 -0.46122,2.32514 -3.36097,5.32875 -1.84853,1.91475 -3.61351,3.48136 -3.92217,3.48136 -0.30867,0 -2.07301,-1.53194 -3.92075,-3.40431 z m 8.26065,-4.33388 c 0.27901,-0.51127 0.37454,-1.45852 0.21229,-2.105 -0.28307,-1.12784 -0.47367,-1.17188 -4.70805,-1.0878 -4.40439,0.0875 -4.41335,0.0903 -4.57138,1.4617 -0.12219,1.0603 0.38692,1.95699 2.22956,3.92692 l 2.3879,2.55286 1.97119,-1.90955 c 1.08415,-1.05026 2.19947,-2.32787 2.47849,-2.83913 z"
     id="path51"
     transform="matrix(0.186775,0,0,0.186775,0,-6.9)" /><path
     style="fill:#552200;fill-opacity:1;stroke-width:0.504342"
     d="m 185.48955,188.49788 c -3.56683,-3.61436 -4.29426,-5.1449 -3.47251,-7.30627 0.84932,-2.2339 2.80209,-3.12894 7.05489,-3.2336 5.64162,-0.13883 7.62151,1.19488 7.62151,5.13407 0,1.59388 -0.46122,2.32514 -3.36097,5.32875 -1.84853,1.91475 -3.61351,3.48136 -3.92217,3.48136 -0.30867,0 -2.07301,-1.53194 -3.92075,-3.40431 z m 6.62195,-2.46663 c 2.10182,-2.3878 2.55543,-3.83587 1.4298,-4.56439 -0.91084,-0.58951 -7.57617,-0.6077 -8.32164,-0.0227 -0.34674,0.2721 -0.63043,0.88888 -0.63043,1.37064 0,1.07527 3.86416,5.55702 4.79125,5.55702 0.36893,0 1.59789,-1.05325 2.73102,-2.34055 z"
     id="path53"
     transform="matrix(0.186775,0,0,0.186775,0,-6.9)" /><path
     style="fill:#552200;fill-opacity:1;stroke-width:0.504342"
     d="m 185.48955,188.49788 c -3.57767,-3.62534 -4.2947,-5.14375 -3.46257,-7.33241 0.856,-2.25147 3.2373,-3.33783 7.28843,-3.32503 5.39244,0.0171 7.37803,1.43038 7.37803,5.25164 0,1.59388 -0.46122,2.32514 -3.36097,5.32875 -1.84853,1.91475 -3.61351,3.48136 -3.92217,3.48136 -0.30867,0 -2.07301,-1.53194 -3.92075,-3.40431 z m 6.62195,-2.46663 c 2.10182,-2.3878 2.55543,-3.83587 1.4298,-4.56439 -0.91084,-0.58951 -7.57617,-0.6077 -8.32164,-0.0227 -0.34674,0.2721 -0.63043,0.88888 -0.63043,1.37064 0,1.07527 3.86416,5.55702 4.79125,5.55702 0.36893,0 1.59789,-1.05325 2.73102,-2.34055 z"
     id="path54"
     transform="matrix(0.186775,0,0,0.186775,0,-6.9)" /><path
     style="fill:#552200;fill-opacity:1;stroke-width:0.504342"
     d=""
     id="path55"
     transform="matrix(0.186775,0,0,0.186775,0,-6.9)" /><path
     style="fill:#552200;fill-opacity:1;stroke-width:0.504342"
     d=""
     id="path56"
     transform="matrix(0.186775,0,0,0.186775,0,-6.9)" /><path
     style="fill:#552200;fill-opacity:1;stroke-width:0.504342"
     d=""
     id="path57"
     transform="matrix(0.186775,0,0,0.186775,0,-6.9)" /><path
     style="fill:#552200;fill-opacity:1;stroke-width:0.504342"
     d="m 185.4581,188.45151 c -3.57462,-3.70267 -4.24903,-5.13478 -3.43112,-7.28604 0.84974,-2.235 3.30614,-3.3808 7.25246,-3.38297 5.32489,-0.003 7.414,1.4932 7.414,5.30958 0,1.59388 -0.46122,2.32514 -3.36097,5.32875 -1.84853,1.91475 -3.62693,3.48136 -3.95199,3.48136 -0.32506,0 -2.09013,-1.55281 -3.92238,-3.45068 z m 6.17877,-1.90699 c 2.18817,-2.49219 2.87982,-4.0816 2.1108,-4.85063 -0.71276,-0.71276 -7.01561,-0.93612 -8.27584,-0.29327 -0.48543,0.24762 -0.88114,0.8394 -0.87934,1.31507 0.004,1.07671 3.87006,5.65611 4.77499,5.65611 0.36576,0 1.38699,-0.82228 2.26939,-1.82728 z"
     id="path58"
     transform="matrix(0.186775,0,0,0.186775,0,-6.9)" /><path
     style="opacity:0.98;mix-blend-mode:luminosity;fill:#501616;fill-opacity:1;stroke-width:0.504342"
     d="m 185.72797,219.38697 c -0.27068,-0.48367 -2.03666,-1.81588 -3.9244,-2.96048 -4.2606,-2.58333 -6.1644,-4.90943 -7.57093,-9.25033 -1.13655,-3.50771 -2.039,-4.56162 -3.44427,-4.02236 -1.17511,0.45093 -1.084,4.6994 0.17165,8.00401 0.5482,1.44273 0.87423,2.74563 0.72453,2.89534 -0.57622,0.57621 -8.02842,-3.77964 -12.95457,-7.57202 -5.82592,-4.48508 -7.93167,-5.15165 -7.93167,-2.51075 0,0.81235 0.36744,1.84445 0.81655,2.29355 0.4491,0.44911 0.7328,0.88245 0.63043,0.96298 -0.10237,0.0805 -1.20742,0.83769 -2.45567,1.68257 -2.60493,1.76315 -4.90361,4.46595 -6.562,7.71565 -1.00908,1.97735 -1.20218,2.13346 -1.54696,1.25068 -0.21668,-0.55477 -0.40991,-2.88667 -0.42941,-5.18199 -0.0336,-3.95564 0.0277,-4.1973 1.17446,-4.63331 1.23855,-0.4709 8.84202,-7.77143 14.20247,-13.63661 l 2.99611,-3.27822 4.53908,0.0398 c 2.4965,0.0219 5.7473,0.30679 7.22402,0.63307 11.37707,2.51376 18.35405,12.77163 16.25461,23.89826 -0.75368,3.99436 -1.22588,4.8998 -1.91403,3.67013 z"
     id="path60"
     transform="matrix(0.186775,0,0,0.186775,0,-6.9)" /><path
     style="fill:#ffccaa;fill-opacity:1;stroke-width:0.504342"
     d="M 49.929874,266.27793 C 45.1167,265.51209 38.216463,263.59637 34.799609,262.07731 l -2.26954,-1.00899 134.407181,-0.0203 c 93.6529,-0.0141 134.13269,0.13944 133.50188,0.50648 -1.44051,0.8382 -7.79437,2.94057 -12.45976,4.12269 l -4.28691,1.08622 -114.73784,0.0983 c -94.341261,0.0808 -115.499908,-0.023 -119.024746,-0.5838 z"
     id="path61"
     transform="matrix(0.186775,0,0,0.186775,0,-6.9)" /><path
     style="fill:#ffccaa;fill-opacity:1;stroke-width:0.504342"
     d="M 99.801016,243.93322 C 83.90061,230.97406 72.921953,215.39607 67.096629,197.52787 c -1.792408,-5.49791 -3.632526,-13.85586 -4.264356,-19.369 l -0.274549,-2.39563 H 166.9469 c 102.23365,0 104.38918,0.0198 104.38918,0.95857 0,2.05702 -2.06294,12.87537 -3.28193,17.21092 -5.23823,18.63068 -16.57075,35.67328 -32.47801,48.84259 l -3.73421,3.09148 -64.85632,-0.018 -64.85632,-0.018 z m 72.264444,-1.62537 c 3.80197,-1.2808 7.66737,-3.7176 10.02462,-6.31966 1.63331,-1.80293 2.01382,-1.97525 4.40422,-1.99449 2.82138,-0.0227 4.50493,-0.93269 6.38541,-3.4514 1.64196,-2.19922 1.45855,-6.6483 -0.37308,-9.04968 l -1.41291,-1.85244 0.61915,-4.04457 c 1.66853,-10.89958 -3.19512,-20.44464 -12.85607,-25.23041 -5.03612,-2.49476 -11.0424,-3.70761 -16.33254,-3.29804 -3.64642,0.28231 -3.65648,0.27959 -3.65648,-0.98753 0,-3.41361 -3.77904,-7.78387 -7.62677,-8.81996 -2.39416,-0.64468 -5.559,-0.32398 -7.68436,0.77867 -1.21809,0.63195 -1.60451,0.63602 -2.7779,0.0292 -7.03685,-3.6389 -15.69627,1.62844 -15.69627,9.5477 0,3.73864 0.96593,5.34242 6.8184,11.32096 l 5.71671,5.83984 -0.53381,3.80406 c -0.42146,3.00354 -0.37989,4.57007 0.19753,7.4442 0.62401,3.10599 0.62843,3.72555 0.0301,4.22211 -1.00927,0.83762 -2.00852,2.93094 -2.4031,5.0342 -0.24525,1.3073 -0.0617,2.45564 0.6497,4.06378 1.33909,3.02722 3.69772,4.64748 6.91864,4.75274 2.29949,0.0751 2.75309,0.30674 5.14739,2.62809 2.66363,2.58248 6.32228,4.74905 9.98287,5.91164 3.30885,1.05088 10.8733,0.87872 14.45854,-0.32905 z m 21.77136,-53.38267 c 3.22555,-3.3411 3.36096,-3.58217 3.36096,-5.98334 0,-2.03082 -0.25038,-2.75235 -1.32962,-3.8316 -1.51481,-1.5148 -1.15531,-1.42675 -6.48768,-1.5891 -2.73855,-0.0834 -4.49307,0.11135 -5.46141,0.60615 -1.80136,0.92046 -3.03822,3.74693 -2.57084,5.87488 0.45274,2.06133 6.51494,8.40436 8.03225,8.40436 0.69387,0 2.3273,-1.27605 4.45634,-3.48135 z"
     id="path63"
     transform="matrix(0.186775,0,0,0.186775,0,-6.9)" /></svg>
